<svg xmlns="http://www.w3.org/2000/svg" width="279.846" height="279.846" viewBox="0 0 279.846 279.846">
  <g id="Group_18" data-name="Group 18" transform="translate(-1763.332 -713.559)">
    <circle id="Ellipse_11" data-name="Ellipse 11" cx="139.923" cy="139.923" r="139.923" transform="translate(1763.332 713.559)" fill="#fff"/>
    <path id="Path_80" data-name="Path 80" d="M1997.323,898.409h7.765a1.8,1.8,0,0,0,.195,0h.167a5.13,5.13,0,0,0,2.774-9.323L1961.559,856.1l18.706-13.223,38.2-27a5.132,5.132,0,0,0-3.825-9.253l.007-.007h-27.667l21.239-15.014a5.131,5.131,0,0,0-3.825-9.251l.007-.007h-66.781a4.556,4.556,0,0,0-.848-.072,5.118,5.118,0,0,0-2.956.941l-16.744,11.838a.138.138,0,0,1-.024.012l.024-.018a68.458,68.458,0,0,1-14.347,4.81,35.434,35.434,0,0,0-5.15,1.543,35.4,35.4,0,0,0-5.145-1.543c-19.417-4.237-29.053-14.665-29.053-14.665h-2.137l-2.806-1.977a5.068,5.068,0,0,0-3.165-.934h-68.057a5.137,5.137,0,0,0-3.181,9.323l21.147,14.949h-7.722a5.137,5.137,0,0,0-3.179,9.325l46.664,32.985-56.9,40.224a5.132,5.132,0,0,0,3.233,9.323h28.155l-21.142,14.948a5.133,5.133,0,0,0,3.231,9.326h67.97a5.134,5.134,0,0,0,3.2-.936l28.657-20.251h.006l9.027-6.383,37.692,26.634a5.1,5.1,0,0,0,3.224.936h68.043a1.807,1.807,0,0,0,.2,0h.167a5.132,5.132,0,0,0,2.774-9.326Z" fill="#ddd"/>
    <g id="Group_17" data-name="Group 17">
      <path id="Path_81" data-name="Path 81" d="M2010.224,890.086l-49.972-35.323-18.982-13.418,30.749-21.736,38.2-27.006a5.131,5.131,0,0,0-3.825-9.251l.007-.007h-66.781a4.556,4.556,0,0,0-.848-.072,5.118,5.118,0,0,0-2.956.941l-16.744,11.838a68.819,68.819,0,0,1-14.347,4.8,35.434,35.434,0,0,0-5.15,1.543,35.4,35.4,0,0,0-5.145-1.543c-19.417-4.237-29.053-14.665-29.053-14.665h-2.137l-2.806-1.977a5.068,5.068,0,0,0-3.165-.934h-68.057a5.137,5.137,0,0,0-3.181,9.323l68.954,48.742-68.947,48.741a5.132,5.132,0,0,0,3.233,9.323h67.968a5.1,5.1,0,0,0,3.195-.934l28.657-20.251h.006l9.029-6.383,37.69,26.634a5.083,5.083,0,0,0,3.224.934h68.043a1.8,1.8,0,0,0,.195,0h.167a5.13,5.13,0,0,0,2.774-9.323" fill="#f09c44"/>
      <path id="Path_82" data-name="Path 82" d="M1904.73,800.856a35.434,35.434,0,0,0-5.15,1.543,35.4,35.4,0,0,0-5.145-1.543c-19.417-4.237-29.053-14.665-29.053-14.665h-52.356l-4.057,3.929a1.393,1.393,0,1,0-1.609,2.274l58.441,41.314,1.217-.864,1.2-.845,3.948-2.79,1.377-.972,19.4-13.709,5.042-3.57.153-.1,7.659-5.42,13.287-9.385a68.819,68.819,0,0,1-14.347,4.8" fill="#fddcb1"/>
      <path id="Path_83" data-name="Path 83" d="M1823.262,876.355c.936-.327,47.286-16.541,65.834,1.869h.006l9.029-6.383-34.236-24.2Z" fill="#e08c34"/>
      <path id="Path_84" data-name="Path 84" d="M1971.868,819.651a1.5,1.5,0,0,1,.151-.042l38.2-27.006h-68.468L1914.4,811.934l-3.377,2.392h0l-.078.052-3.886,2.789-5.071,3.643-11.76,8.448-16.822,12.087h-.61l34.236,24.2,26.7,18.874.014.007v-.007c-4.732-16.809,26.5-29.655,26.5-29.655l-18.982-13.418,30.749-21.736A1.5,1.5,0,0,0,1971.868,819.651Z" fill="#e08c34"/>
      <path id="Path_85" data-name="Path 85" d="M1926.851,823.969c-.846-.122-1.681-.275-2.484-.448-6.421-1.348-11.447-4.137-13.34-9.2l-.078.052-3.886,2.789-5.071,3.643-11.76,8.448-16.822,12.087h67.86l30.749-21.736a178.6,178.6,0,0,1-27.453,4.63,80.388,80.388,0,0,1-17.715-.27" fill="#d68228"/>
      <path id="Path_86" data-name="Path 86" d="M1942.98,897.242a5.13,5.13,0,0,0-1.224-7.156l-8.021-5.668-26.7-18.874-34.236-24.2,17.121-12.1,12.006-8.484,5.109-3.616,3.9-2.767.087-.052,3.377-2.392,27.352-19.331a5.136,5.136,0,0,0-2.131-9.258,4.556,4.556,0,0,0-.848-.072,5.118,5.118,0,0,0-2.956.941l-16.744,11.838-13.287,9.385-7.659,5.42-.153.1-5.042,3.57-19.4,13.709-1.377.972-3.948,2.79-1.2.845-1.224.864-1.341.95-.558.389-71.924-50.833a5.138,5.138,0,0,0-5.935,8.389l68.954,48.742-68.947,48.741a5.132,5.132,0,0,0,3.233,9.323,5.085,5.085,0,0,0,2.695-.934l31.291-22.12,40.633-28.713,34.236,24.2,37.69,26.634a5.137,5.137,0,0,0,7.159-1.233" fill="#f9b85b"/>
      <path id="Path_87" data-name="Path 87" d="M1842.08,800.856c7.672,1.667,14.172,5.9,19.221,10.406,4.74-.565,9.492,1.644,14.376.985a30.287,30.287,0,0,0,9.346-3.2c.842-.421,1.668-.855,2.487-1.3q1.748-.945,3.469-1.948,1.185-.7,2.369-1.413l1.152.405a39.987,39.987,0,0,1,5.08-2.392,35.4,35.4,0,0,0-5.145-1.543c-19.417-4.237-29.053-14.665-29.053-14.665h-52.35c.131.153,9.776,10.464,29.048,14.665" fill="#fde3c1"/>
      <path id="Path_88" data-name="Path 88" d="M1813.026,786.191Z" fill="#fde3c1"/>
      <path id="Path_89" data-name="Path 89" d="M1904.73,800.856a35.434,35.434,0,0,0-5.15,1.543,39.987,39.987,0,0,0-5.08,2.392c-.911.508-1.805,1.051-2.666,1.609a51.758,51.758,0,0,0-5.13,3.818,66.188,66.188,0,0,0-13.3,15.483,65.862,65.862,0,0,0-12.1-14.439c-5.049-4.507-11.549-8.739-19.221-10.406-19.272-4.2-28.917-14.512-29.048-14.665h-.006l-4.057,3.929a1.4,1.4,0,0,0-1.951.333,1.387,1.387,0,0,0,.342,1.941l58.441,41.314,1.217-.864,1.2-.845,3.948-2.79,1.377-.972,19.4-13.709,5.042-3.57.153-.1,7.659-5.42,13.287-9.391A68.458,68.458,0,0,1,1904.73,800.856Z" fill="#e5c7a0"/>
      <path id="Path_90" data-name="Path 90" d="M1807.018,790.453a1.387,1.387,0,0,0,.342,1.941l58.441,41.314,1.217-.864,1.2-.845-59.246-41.879a1.4,1.4,0,0,0-1.951.333" fill="#1d4469"/>
    </g>
  </g>
</svg>
